<?xml version="1.0" encoding="UTF-8" standalone="no"?>
<svg
   xmlns:dc="http://purl.org/dc/elements/1.1/"
   xmlns:cc="http://creativecommons.org/ns#"
   xmlns:rdf="http://www.w3.org/1999/02/22-rdf-syntax-ns#"
   xmlns:svg="http://www.w3.org/2000/svg"
   xmlns="http://www.w3.org/2000/svg"
   xmlns:sodipodi="http://sodipodi.sourceforge.net/DTD/sodipodi-0.dtd"
   xmlns:inkscape="http://www.inkscape.org/namespaces/inkscape"
   width="139"
   height="20"
   version="1.1"
   id="svg54"
   sodipodi:docname="logo-white.svg"
   inkscape:version="0.92.4 (5da689c313, 2019-01-14)">
  <metadata
     id="metadata58">
    <rdf:RDF>
      <cc:Work
         rdf:about="">
        <dc:format>image/svg+xml</dc:format>
        <dc:type
           rdf:resource="http://purl.org/dc/dcmitype/StillImage" />
        <dc:title></dc:title>
      </cc:Work>
    </rdf:RDF>
  </metadata>
  <sodipodi:namedview
     pagecolor="#ffffff"
     bordercolor="#666666"
     borderopacity="1"
     objecttolerance="10"
     gridtolerance="10"
     guidetolerance="10"
     inkscape:pageopacity="0"
     inkscape:pageshadow="2"
     inkscape:window-width="1920"
     inkscape:window-height="1001"
     id="namedview56"
     showgrid="false"
     inkscape:zoom="12.661871"
     inkscape:cx="69.5"
     inkscape:cy="10"
     inkscape:window-x="1911"
     inkscape:window-y="-9"
     inkscape:window-maximized="1"
     inkscape:current-layer="svg54" />
  <defs
     id="defs40">
    <linearGradient
       id="a"
       x1="72.195%"
       x2="17.503%"
       y1="0%"
       y2="100%">
      <stop
         offset="0%"
         stop-color="#33D35E"
         id="stop35" />
      <stop
         offset="100%"
         stop-color="#2AB6D9"
         id="stop37" />
    </linearGradient>
  </defs>
  <g
     fill="none"
     fill-rule="evenodd"
     id="g52">
    <path
       fill="#2D314D"
       fill-rule="nonzero"
       d="M37.754 15.847c2.852 0 5.152-1.622 5.952-4.216h-3.897c-.376.665-1.14 1.066-2.055 1.066-1.237 0-2.065-.674-2.32-1.978h8.44c.051-.352.081-.694.081-1.037 0-3.335-2.537-5.95-6.201-5.95-3.568 0-6.175 2.564-6.175 6.049 0 3.473 2.628 6.066 6.175 6.066zm2.344-7.297h-4.596c.317-1.129 1.11-1.749 2.252-1.749 1.181 0 2 .613 2.344 1.75zm10.946 7.296c1.32 0 2.5-.434 3.43-1.188l.336.804h3.027V4.093h-2.919l-.4.88c-.94-.775-2.135-1.222-3.474-1.222-3.476 0-5.961 2.505-5.961 6.026 0 3.533 2.485 6.07 5.961 6.07zm.524-3.467c-1.467 0-2.545-1.108-2.545-2.593 0-1.475 1.069-2.583 2.545-2.583 1.466 0 2.544 1.108 2.544 2.583 0 1.485-1.078 2.593-2.544 2.593zm13.123 3.467c3.02 0 5.025-1.554 5.025-3.93 0-2.883-2.387-3.256-4.183-3.575-1.08-.193-1.95-.344-1.95-.99 0-.527.422-.838 1.05-.838.71 0 1.197.337 1.197 1.063h3.667c-.044-2.303-1.92-3.843-4.816-3.843-2.912 0-4.854 1.47-4.854 3.75 0 2.757 2.337 3.289 4.1 3.574 1.092.181 1.952.368 1.952 1.024 0 .587-.543.88-1.116.88-.742 0-1.32-.383-1.32-1.214h-3.77c.036 2.463 1.919 4.1 5.018 4.1zm8.1 3.858c2.936 0 4.344-1.257 5.877-4.736l4.764-10.863h-4.206l-2.249 6.263-2.412-6.263H70.31l4.698 10.43c-.53 1.414-.983 1.804-2.48 1.804H71.45v3.365h1.341zm18.504-3.858c3.5 0 5.973-2.515 5.973-6.048S94.796 3.75 91.295 3.75a5.332 5.332 0 00-2.825.784V0H84.6v15.474h2.897l.37-.844c.923.771 2.102 1.216 3.428 1.216zm-.523-3.467c-1.467 0-2.545-1.108-2.545-2.58 0-1.486 1.078-2.594 2.545-2.594 1.466 0 2.544 1.108 2.544 2.593 0 1.473-1.087 2.58-2.544 2.58zm13.598 3.467c1.32 0 2.5-.434 3.43-1.188l.336.804h3.027V4.093h-2.918l-.401.88c-.939-.775-2.135-1.222-3.474-1.222-3.476 0-5.96 2.505-5.96 6.026 0 3.533 2.484 6.07 5.96 6.07zm.524-3.467c-1.467 0-2.545-1.108-2.545-2.593 0-1.475 1.07-2.583 2.545-2.583 1.467 0 2.545 1.108 2.545 2.583 0 1.485-1.078 2.593-2.545 2.593zm12.653 3.095V9.403c0-1.447.702-2.3 1.923-2.3.986 0 1.483.657 1.483 1.98v6.39h3.915V8.543c0-2.897-1.733-4.773-4.373-4.773-1.47 0-2.733.565-3.58 1.508l-.537-1.172h-2.747v11.369h3.916zm13.748 0v-4.808l2.848 4.808h4.616l-3.902-5.95 3.543-5.419h-4.397l-2.708 4.454V0h-3.916v15.474h3.916z"
       id="path42" />
    <g
       fill="url(#a)"
       id="g50">
      <path
         d="M10.802 0L0 19.704h5.986L16.789 0z"
         id="path44" />
      <path
         opacity=".5"
         d="M18.171 0L7.368 19.704h5.986L24.157 0z"
         id="path46" />
      <path
         opacity=".15"
         d="M25.539 0L14.737 19.704h5.986L31.525 0z"
         id="path48" />
    </g>
  </g>
  <path
     style="opacity:1;fill:#ffffff;fill-opacity:1;stroke-width:0.07897727"
     d="M 36.526989,15.701031 C 34.134955,15.232543 32.380894,13.594117 31.784869,11.271534 31.558203,10.38826 31.593133,8.9401325 31.862919,8.0355893 32.34151,6.4309891 33.309511,5.23892 34.740844,4.4914972 c 0.928098,-0.4846406 1.4958,-0.6202357 2.773356,-0.6624136 0.983494,-0.03247 1.24507,-0.013968 1.852772,0.1310497 2.111895,0.5039678 3.676095,1.9555514 4.304244,3.9943553 0.183404,0.5952809 0.299273,1.9503867 0.208254,2.4355614 l -0.05425,0.289155 H 39.60201 35.3788 l 0.05392,0.217187 c 0.349363,1.407148 1.614586,2.114315 3.075364,1.718901 0.403746,-0.109289 0.607383,-0.223284 0.936973,-0.52451 l 0.421113,-0.384874 h 1.864637 c 1.535476,0 1.864637,0.0193 1.864637,0.10932 0,0.219403 -0.635675,1.364445 -1.018797,1.83516 -0.716771,0.880646 -1.90914,1.630843 -3.077308,1.936134 -0.784987,0.20515 -2.226092,0.260667 -2.972361,0.114508 z M 40.082303,8.5446548 C 40.164878,8.4110457 39.796285,7.7446286 39.446158,7.3945006 38.68241,6.630753 37.175083,6.5632966 36.271581,7.2524309 35.882972,7.5488377 35.37898,8.4386767 35.519896,8.5795928 c 0.08529,0.085294 4.509037,0.051418 4.562407,-0.034938 z"
     id="path60"
     inkscape:connector-curvature="0" />
  <path
     style="opacity:1;fill:#ffffff;fill-opacity:1;stroke-width:0.07897727"
     d="M 49.954064,15.733737 C 47.637127,15.314693 45.934503,13.732588 45.321939,11.429489 45.086818,10.545491 45.087525,9.0054795 45.323456,8.1220662 45.8721,6.0677383 47.3545,4.5414867 49.321307,4.005952 c 0.742251,-0.2021047 2.186966,-0.2454099 2.899397,-0.086909 0.63407,0.1410672 1.593308,0.5639655 2.025501,0.8929806 0.29765,0.2265918 0.30461,0.2220808 0.543142,-0.3519831 l 0.139346,-0.3353574 1.441335,-2.961e-4 1.441336,-2.96e-4 v 5.646875 5.646875 h -1.490039 -1.490038 l -0.168192,-0.404714 c -0.165145,-0.397383 -0.171415,-0.402409 -0.346183,-0.277485 -0.449008,0.32095 -1.173493,0.682965 -1.67856,0.838754 -0.627126,0.193437 -2.034007,0.276951 -2.684288,0.159341 z m 2.697503,-3.551159 C 53.876468,11.642397 54.457094,10.09594 53.940748,8.7489298 53.700601,8.1224497 53.177746,7.6007293 52.554707,7.3658981 51.871992,7.1085744 50.914958,7.1575942 50.322829,7.4802161 c -0.834298,0.4545683 -1.300366,1.2542782 -1.309832,2.2474942 -0.0074,0.7804177 0.177542,1.3067507 0.640056,1.8211767 0.373616,0.415551 0.631607,0.583849 1.168822,0.762472 0.439726,0.146208 1.351683,0.08202 1.829692,-0.128781 z"
     id="path62"
     inkscape:connector-curvature="0" />
  <path
     style="opacity:1;fill:#ffffff;fill-opacity:1;stroke-width:0.07897727"
     d="m 63.540038,15.730191 c -1.494282,-0.234641 -2.77581,-1.045939 -3.348033,-2.119538 -0.235492,-0.441827 -0.4816,-1.279818 -0.484019,-1.648068 l -0.0012,-0.177699 h 1.855966 1.855966 v 0.185764 c 0,0.270937 0.316966,0.701585 0.633392,0.860563 0.332426,0.167016 1.028112,0.181688 1.325404,0.02795 0.462686,-0.239264 0.626849,-0.623739 0.448539,-1.050495 -0.152749,-0.36558 -0.552572,-0.52804 -1.987975,-0.807776 C 62.02436,10.647429 61.36787,10.376156 60.693009,9.7012946 60.09829,9.1065762 59.912607,8.5876004 59.912607,7.5201116 c 0,-0.6795182 0.03286,-0.9125994 0.181952,-1.2907785 0.381171,-0.9668298 1.272501,-1.7401228 2.473695,-2.1461104 0.568451,-0.1921288 0.807154,-0.2254244 1.843191,-0.2570981 1.018926,-0.03115 1.282153,-0.013125 1.829461,0.1252771 1.194886,0.3021613 2.038641,0.8313818 2.580992,1.6188501 0.31684,0.4600377 0.599093,1.2517668 0.599093,1.6804758 v 0.269384 h -1.759679 -1.75968 L 65.785633,7.1916148 C 65.606539,6.6845746 65.340586,6.5328977 64.630628,6.5328977 c -0.569936,0 -0.601986,0.010038 -0.82347,0.2579222 -0.169594,0.1898085 -0.230453,0.3377876 -0.230453,0.5603447 0,0.5370024 0.340458,0.710035 2.042325,1.0379786 1.976443,0.3808535 2.664215,0.6704311 3.334677,1.4040229 0.547631,0.5991949 0.738602,1.2429789 0.686944,2.3157599 -0.03372,0.700207 -0.0677,0.842437 -0.326278,1.365636 -0.50868,1.029245 -1.488837,1.767544 -2.804174,2.112237 -0.698421,0.183025 -2.242916,0.257589 -2.970161,0.143392 z"
     id="path64"
     inkscape:connector-curvature="0" />
  <path
     style="opacity:1;fill:#ffffff;fill-opacity:1;stroke-width:0.07897727"
     d="m 71.474432,18.034663 v -1.669095 h 0.854415 c 1.453638,0 1.982206,-0.262921 2.447646,-1.217511 0.138554,-0.284166 0.251916,-0.548903 0.251916,-0.588305 0,-0.0394 -0.999548,-2.28804 -2.221219,-4.9969741 C 71.58552,6.8538438 70.53662,4.5219389 70.476301,4.380767 L 70.36663,4.1240909 h 2.083175 2.083174 l 1.128166,2.9419034 c 0.62049,1.6180469 1.172443,3.0297407 1.22656,3.1370987 l 0.0984,0.195195 0.111062,-0.274173 c 0.06109,-0.1507943 0.571293,-1.5622118 1.133797,-3.136483 l 1.022733,-2.8623111 2.06447,-6.15e-4 2.06447,-6.15e-4 -2.325916,5.3112216 C 79.777468,12.356484 78.53652,15.152729 78.29906,15.64919 c -0.909916,1.902372 -1.86811,3.020727 -3.040999,3.549298 -0.728485,0.328297 -1.221483,0.416939 -2.579222,0.463748 l -1.204403,0.04152 z"
     id="path66"
     inkscape:connector-curvature="0" />
  <path
     style="opacity:1;fill:#ffffff;fill-opacity:1;stroke-width:0.07897727"
     d="m 90.163611,15.695674 c -0.600907,-0.125468 -1.36325,-0.456902 -1.89938,-0.825769 -0.193323,-0.13301 -0.370761,-0.241837 -0.394305,-0.241837 -0.02354,0 -0.119252,0.177699 -0.212683,0.394887 l -0.169876,0.394886 H 86.075502 84.663636 V 7.7175568 0.01727273 h 1.895455 1.895454 V 2.268125 c 0,1.2379687 0.01286,2.2508523 0.02857,2.2508523 0.01571,0 0.265201,-0.1072959 0.554423,-0.2384352 0.852785,-0.3866711 1.453055,-0.4930586 2.536615,-0.4495704 0.52125,0.02092 1.160966,0.095783 1.421591,0.1663628 1.752862,0.4746898 3.247187,1.8561867 3.853204,3.5622678 0.427729,1.2041586 0.482673,2.8511747 0.135613,4.0651677 -0.557797,1.951142 -2.006076,3.398857 -3.95149,3.949955 -0.772593,0.218861 -2.12709,0.275953 -2.869455,0.120949 z m 1.801675,-3.58714 c 0.553384,-0.27243 0.883348,-0.623547 1.170326,-1.245352 0.24434,-0.529418 0.246527,-1.6348816 0.0043,-2.1680761 C 92.913382,8.196509 92.453579,7.7076572 91.974046,7.4555953 91.618866,7.2688985 91.485832,7.2452978 90.784375,7.2445431 c -0.662326,-7.128e-4 -0.848396,0.028036 -1.153057,0.1781539 -0.46891,0.2310498 -0.90308,0.6668933 -1.159142,1.1636098 -0.290806,0.5641141 -0.337984,1.5564582 -0.103552,2.1781422 0.545211,1.445829 2.162389,2.050175 3.596662,1.344085 z"
     id="path68"
     inkscape:connector-curvature="0" />
  <path
     style="opacity:1;fill:#ffffff;fill-opacity:1;stroke-width:0.07897727"
     d="m 103.14432,15.700032 c -2.90071,-0.614584 -4.657286,-2.844077 -4.659108,-5.9134756 -7.09e-4,-1.1950723 0.146062,-1.8555556 0.640268,-2.881257 0.682198,-1.4158689 1.81903,-2.3580618 3.466,-2.8725825 0.50959,-0.1591995 0.75228,-0.1846313 1.7375,-0.1820744 1.03427,0.00268 1.20807,0.023988 1.79473,0.2199924 0.35726,0.1193611 0.88618,0.375687 1.17538,0.5696132 0.28919,0.193926 0.53932,0.3525928 0.55583,0.3525928 0.0165,0 0.11647,-0.1954687 0.22213,-0.434375 l 0.1921,-0.434375 h 1.42594 1.42593 v 5.646875 5.6468751 h -1.48984 -1.48983 l -0.14054,-0.375142 c -0.0773,-0.206328 -0.15071,-0.387453 -0.16314,-0.402499 -0.0124,-0.01505 -0.17613,0.07782 -0.3638,0.206379 -0.4917,0.336835 -0.89764,0.529956 -1.52586,0.725903 -0.70841,0.220962 -2.07037,0.282922 -2.80369,0.12755 z m 2.85061,-3.537487 c 0.54515,-0.252861 0.98674,-0.695596 1.24318,-1.246409 0.29223,-0.627684 0.29383,-1.592168 0.004,-2.2149671 -0.27042,-0.5804213 -0.59999,-0.9427305 -1.11063,-1.2209528 -0.59212,-0.3226219 -1.54916,-0.3716417 -2.23187,-0.114318 -0.95403,0.3595837 -1.55053,1.2666073 -1.554,2.362947 -9.1e-4,0.2881659 0.0237,0.6287669 0.0546,0.7568929 0.15738,0.651809 0.69934,1.345337 1.29,1.650779 0.64599,0.334056 1.61733,0.345025 2.30506,0.02603 z"
     id="path70"
     inkscape:connector-curvature="0" />
  <path
     style="opacity:1;fill:#ffffff;fill-opacity:1;stroke-width:0.07897727"
     d="m 113.6483,9.7709659 v -5.646875 h 1.34775 1.34775 l 0.275,0.5952013 0.275,0.5952013 0.41091,-0.362603 c 1.3879,-1.2247318 3.73558,-1.4924076 5.37058,-0.6123379 0.61339,0.3301723 1.25556,1.0150569 1.58573,1.6912073 0.54752,1.1212663 0.54537,1.1010739 0.58244,5.4579621 l 0.0334,3.929119 h -1.94186 -1.94185 v -3.352647 c 0,-2.0929253 -0.0319,-3.5013968 -0.0849,-3.7485334 -0.18,-0.8393098 -0.66229,-1.2345953 -1.49464,-1.2250108 -0.82389,0.00949 -1.32252,0.3372869 -1.67441,1.1007545 -0.17929,0.3889783 -0.18185,0.4366036 -0.20447,3.8096697 l -0.0229,3.415767 h -1.93178 -1.93177 z"
     id="path72"
     inkscape:connector-curvature="0" />
  <path
     style="opacity:1;fill:#ffffff;fill-opacity:1;stroke-width:0.07897727"
     d="M 127.39034,7.7175568 V 0.01727273 h 1.93494 1.93495 V 4.2989692 c 0,3.6186473 0.0167,4.2637882 0.10765,4.1660514 0.0592,-0.063605 0.6844,-1.0663345 1.38932,-2.2282876 l 1.28168,-2.1126421 h 2.12516 c 1.16884,0 2.12516,0.017269 2.12516,0.038377 0,0.021107 -0.77002,1.2171691 -1.71117,2.6579157 -0.94115,1.4407466 -1.71083,2.6584846 -1.71041,2.7060834 4.2e-4,0.0476 0.8576,1.392631 1.90483,2.988959 l 1.90406,2.902415 -2.26681,-0.0014 -2.2668,-0.0014 -1.37629,-2.332425 c -0.75695,-1.282834 -1.40556,-2.350516 -1.44133,-2.372629 -0.0358,-0.02211 -0.065,1.028088 -0.065,2.333776 v 2.37398 h -1.93495 -1.93494 z"
     id="path74"
     inkscape:connector-curvature="0" />
</svg>
